<svg xmlns="http://www.w3.org/2000/svg" viewBox="0 0 2036.71 2367.77"><defs><style>.cls-1{fill:#485569;}.cls-2{fill:#674897;stroke:#4b77bb;stroke-width:14px;}.cls-2,.cls-5,.cls-6,.cls-7,.cls-8{stroke-miterlimit:10;}.cls-3,.cls-5,.cls-7{fill:#fff;}.cls-4{fill:#fefeff;}.cls-5{stroke:#fff;stroke-width:10px;}.cls-6{fill:#b1b4b5;stroke-width:21.43px;}.cls-6,.cls-7,.cls-8{stroke:#000;}.cls-7{stroke-width:21.7px;}.cls-8{fill:none;stroke-width:27.13px;}.cls-9{font-size:400px;fill:#1d1d1b;font-family:FranklinGothic-Heavy, Franklin Gothic Heavy;font-weight:800;letter-spacing:0.01em;}</style></defs><g id="Capa_2" data-name="Capa 2"><g id="Capa_1-2" data-name="Capa 1"><g id="Reloj"><circle class="cls-1" cx="1024.64" cy="778.04" r="778.04"/><circle class="cls-2" cx="1024.64" cy="778.04" r="637.92"/><rect class="cls-3" x="323.74" y="763.46" width="170" height="29.16" rx="12"/><circle class="cls-3" cx="1024.75" cy="778.04" r="11.28"/><circle class="cls-3" cx="1514.33" cy="493.7" r="35.1"/><circle class="cls-3" cx="1306.05" cy="286.18" r="35.1"/><circle class="cls-3" cx="744.45" cy="286.18" r="35.1"/><circle class="cls-3" cx="536.01" cy="493.54" r="35.1"/><polygon class="cls-4" points="1065.55 143.11 1018.36 285.68 971.16 143.11 1018.36 0.54 1065.55 143.11"/><polygon class="cls-4" points="388.88 731.49 531.45 778.68 388.88 825.88 246.3 778.68 388.88 731.49"/><polygon class="cls-4" points="1661.06 827.81 1518.48 780.62 1661.06 733.43 1803.63 780.62 1661.06 827.81"/><g id="Horario"><path class="cls-4" d="M966.72,759.4l58,19.12L968.68,802.8l-267.8-8.31a1.31,1.31,0,0,1-.12-2.62Z"/></g><g id="Minutero"><path class="cls-3" d="M1077.69,741.71l-52.94,37,15-62.8L1278.88,404.4a.59.59,0,0,1,1,.66Z"/></g><line class="cls-5" x1="865.43" y1="459.69" x2="1024.91" y2="778.04"/></g><g id="Libro"><path id="I" class="cls-6" d="M1014.87,1488.51c0,1.87-.08,8.41-.08,8.41s-6.16-3-8-3.76c-18.75-7.84-71-25.37-167-27.35C727.08,1463.5,492,1491.07,450,1496.13c-3.44.41-6.49-2-6.48-5.12l1.66-544.36a5.35,5.35,0,0,1,4.7-5c32.33-5.26,225.18-35.6,372.59-35.6,124.9,0,179.51,27.66,191.45,34.74a5,5,0,0,1,2.58,4.31Z"/><path id="D" class="cls-6" d="M1037.17,1488.51c0,1.87,0,8.41,0,8.41s6.26-3,8.15-3.76c18.75-7.84,71-25.37,167-27.35,112.7-2.31,347.76,25.26,389.76,30.32,3.44.41,6.49-2,6.48-5.12l-1.66-544.36a5.34,5.34,0,0,0-4.7-5C1569.81,936.34,1377,906,1229.55,906c-124.91,0-179.52,27.66-191.46,34.74a5.05,5.05,0,0,0-2.58,4.31Z"/><g id="I-2" data-name="I"><path id="I-3" data-name="I" class="cls-7" d="M1013.12,1467.26c0,4.23-5.39,6.65-9.15,4.1-18.3-12.41-65.24-37.14-150.81-39-103.42-2.3-319.81,37-361.12,44.76-3.56.66-6.89-1.79-6.88-5l1.53-544.24a5.28,5.28,0,0,1,4.28-5c30.19-7.05,214.35-48.69,350.88-48.69,118.43,0,163.27,39.78,171.4,48.16a4.85,4.85,0,0,1,1.4,3.39Z"/><path class="cls-8" d="M518.16,1042.34s246.43-54,363.47-40.8c71.12,8.05,100,23.77,100,23.77"/><path class="cls-8" d="M518.16,1150.09s246.43-54.06,363.47-40.81c71.12,8,100,23.77,100,23.77"/><path class="cls-8" d="M518.16,1250.24s246.43-54,363.47-40.8c71.12,8,100,23.77,100,23.77"/><path class="cls-8" d="M518.16,1364.59s246.43-54,363.47-40.8c71.12,8,100,23.77,100,23.77"/></g><g id="D-2" data-name="D"><path id="D-3" data-name="D" class="cls-7" d="M1038.91,1467.26c0,4.23,5.39,6.65,9.15,4.1,18.3-12.41,65.24-37.14,150.82-39,103.41-2.3,319.8,37,361.12,44.76,3.55.66,6.88-1.79,6.87-5l-1.53-544.24a5.28,5.28,0,0,0-4.28-5c-30.19-7.05-214.35-48.69-350.87-48.69-118.44,0-163.28,39.78-171.4,48.16a4.81,4.81,0,0,0-1.4,3.39Z"/><path class="cls-8" d="M1537.28,1042.34s-246.43-54-363.47-40.8c-71.12,8.05-100,23.77-100,23.77"/><path class="cls-8" d="M1537.28,1150.09s-246.43-54.06-363.47-40.81c-71.12,8-100,23.77-100,23.77"/><path class="cls-8" d="M1537.28,1250.24s-246.43-54-363.47-40.8c-71.12,8-100,23.77-100,23.77"/><path class="cls-8" d="M1537.28,1364.59s-246.43-54-363.47-40.8c-71.12,8-100,23.77-100,23.77"/></g></g><text class="cls-9" transform="translate(33.91 1932.11)">FREE TIME<tspan x="134.15" y="313">CLASSES</tspan></text></g></g></svg>